<?xml version="1.0" standalone="no"?>
<!DOCTYPE svg PUBLIC "-//W3C//DTD SVG 20010904//EN" "http://www.w3.org/TR/2001/REC-SVG-20010904/DTD/svg10.dtd">
<svg version="1.0" xmlns="http://www.w3.org/2000/svg" width="239.000000pt" height="222.000000pt" fill="#FFFFFFF" viewBox="0 0 239.000000 222.000000" preserveAspectRatio="xMidYMid meet">
  <g transform="translate(0.000000,222.000000) scale(0.100000,-0.100000)" stroke="none">
    <path d="M1555 2010 c-25 -13 -277 -257 -663 -643 -547 -546 -622 -625 -618
-647 2 -14 0 -44 -6 -68 -8 -32 -7 -54 2 -88 11 -40 35 -68 171 -202 87 -86
171 -162 185 -170 17 -9 50 -14 83 -12 31 1 72 2 92 1 34 0 63 28 666 632 674
675 653 651 653 748 0 52 -26 131 -67 201 -112 191 -364 316 -498 248z m241
-86 c169 -84 294 -292 252 -419 -33 -101 -76 10 -53 136 6 33 4 37 -29 57 -27
16 -36 29 -41 59 -9 57 -18 67 -65 74 -33 4 -49 14 -75 44 l-32 39 -46 -18
c-42 -16 -48 -16 -76 -2 -16 9 -39 16 -49 16 -35 0 -35 30 1 46 49 22 129 10
213 -32z m-259 -82 c109 -161 134 -406 64 -623 -17 -53 -39 -107 -49 -120 -9
-13 -26 -40 -36 -59 -27 -49 -106 -147 -158 -196 -196 -185 -449 -276 -685
-246 -103 13 -237 64 -295 113 l-31 25 574 576 c316 317 576 576 579 577 3 0
20 -21 37 -47z m171 -66 c15 -8 34 -26 42 -40 8 -17 22 -26 37 -26 41 0 92
-28 113 -62 19 -31 27 -97 14 -111 -14 -14 -34 7 -34 38 0 39 -31 81 -64 87
-31 6 -39 1 -55 -39 -15 -37 -15 -37 -43 -22 -13 7 -17 14 -10 18 7 4 15 21
18 39 6 31 -6 48 -70 100 -38 31 1 44 52 18z m180 -302 c105 -61 116 -36 -101
-252 -106 -105 -195 -195 -200 -199 -4 -4 8 27 27 69 20 41 44 108 55 149 24
90 45 233 37 254 -3 8 -3 21 0 29 5 12 16 11 71 -4 35 -11 86 -31 111 -46z
m-1515 -834 c36 -29 130 -69 195 -84 31 -7 59 -19 63 -27 4 -8 19 -52 33 -99
14 -47 39 -106 55 -132 16 -25 27 -49 24 -52 -11 -10 -73 -7 -96 5 -43 23
-296 283 -311 319 -14 34 -11 90 4 90 4 0 19 -9 33 -20z m846 15 c-2 -2 -91
-92 -198 -199 -148 -148 -198 -193 -208 -185 -27 23 -95 164 -107 225 l-7 31
95 7 c144 10 331 62 391 110 18 14 45 23 34 11z"/>
  </g>
</svg>
